<svg xmlns="http://www.w3.org/2000/svg" viewBox="0 0 24 24"><title>phone</title><g id="Layer_2" data-name="Layer 2"><g id="Layer_3" data-name="Layer 3"><path d="M7.49,10l.36.35a2.5,2.5,0,0,0,0-3.53L5.72,4.71a2.5,2.5,0,0,0-3.53,0L1,5.87a3.5,3.5,0,0,0-.44,4.4A47,47,0,0,0,13.72,23.42a3.52,3.52,0,0,0,1.94.58,3.48,3.48,0,0,0,2.47-1l1.16-1.16a2.51,2.51,0,0,0,0-3.54l-2.12-2.12a2.51,2.51,0,0,0-3.54,0l-.7.71.35.35.32-.38A47.07,47.07,0,0,1,7.17,10.4l-.39.32.36.35.71-.7L7.49,10l-.35-.35-.71.7a.52.52,0,0,0,0,.68A48.41,48.41,0,0,0,13,17.6a.5.5,0,0,0,.67,0l.71-.71a1.53,1.53,0,0,1,1.06-.44,1.49,1.49,0,0,1,1.06.44L18.58,19A1.48,1.48,0,0,1,19,20a1.45,1.45,0,0,1-.44,1.06l-1.16,1.17a2.49,2.49,0,0,1-1.76.73,2.54,2.54,0,0,1-1.39-.42A45.88,45.88,0,0,1,1.42,9.72a2.48,2.48,0,0,1,.31-3.14L2.9,5.41A1.48,1.48,0,0,1,4,5,1.52,1.52,0,0,1,5,5.41L7.14,7.54A1.49,1.49,0,0,1,7.58,8.6a1.53,1.53,0,0,1-.44,1.06Z"/><path d="M12,1A11,11,0,0,1,23,12a.5.5,0,0,0,1,0A12,12,0,0,0,12,0a.5.5,0,0,0-.5.5A.5.5,0,0,0,12,1Z"/><path d="M12,5a7,7,0,0,1,7,7,.5.5,0,0,0,1,0,8,8,0,0,0-8-8,.5.5,0,0,0,0,1Z"/><path d="M12,9a3,3,0,0,1,3,3,.5.5,0,0,0,1,0,4,4,0,0,0-4-4,.5.5,0,0,0,0,1Z"/></g></g></svg>