<svg class="hospital" xmlns="http://www.w3.org/2000/svg" viewBox="0 0 24 24"><title>banko</title><g id="Layer_2" data-name="Layer 2"><g id="Layer_3" data-name="Layer 3"><polyline points="3 19.5 3 11.5 2 11.5 2 19.5"/><path d="M1.5,20h5a.5.5,0,0,0,0-1h-5a.5.5,0,0,0,0,1"/><path d="M.5,24h23a.5.5,0,0,0,0-1H.5a.5.5,0,0,0,0,1"/><path d="M.5,22h23a.5.5,0,0,0,0-1H.5a.5.5,0,0,0,0,1"/><path d="M1.5,12h5a.5.5,0,0,0,0-1h-5a.5.5,0,0,0,0,1"/><path d="M9.5,20h5a.5.5,0,0,0,0-1h-5a.5.5,0,0,0,0,1"/><path d="M9.5,12h5a.5.5,0,0,0,0-1h-5a.5.5,0,0,0,0,1"/><polyline points="6 19.5 6 11.5 5 11.5 5 19.5"/><polyline points="11 19.5 11 11.5 10 11.5 10 19.5"/><polyline points="14 19.5 14 11.5 13 11.5 13 19.5"/><path d="M17.5,20h5a.5.5,0,0,0,0-1h-5a.5.5,0,0,0,0,1"/><path d="M17.5,12h5a.5.5,0,0,0,0-1h-5a.5.5,0,0,0,0,1"/><polyline points="19 19.5 19 11.5 18 11.5 18 19.5"/><polyline points="22 19.5 22 11.5 21 11.5 21 19.5"/><path d="M.5,9.5V10h23A.51.51,0,0,0,24,9.66a.48.48,0,0,0-.16-.55L12.34.11a.48.48,0,0,0-.62,0L.19,9.11A.48.48,0,0,0,0,9.66.51.51,0,0,0,.5,10V9.5l.31.39L12,1.14,22.05,9H.5v.5l.31.39Z"/></g></g></svg>