<svg class="hospital" xmlns="http://www.w3.org/2000/svg" viewBox="0 0 18 24"><title>condo</title><g id="Layer_2" data-name="Layer 2"><g id="Layer_3" data-name="Layer 3"><path d="M17.5,23.5V23H1V3H17V23.5h.5v0H18V2.5a.47.47,0,0,0-.15-.35A.47.47,0,0,0,17.5,2H.5a.47.47,0,0,0-.35.15A.47.47,0,0,0,0,2.5v21a.47.47,0,0,0,.15.35A.47.47,0,0,0,.5,24h17a.51.51,0,0,0,.5-.5Z"/><path d="M10.5,23.5V23H8V20h2v3.5h.5v0H11v-4a.51.51,0,0,0-.5-.5h-3a.51.51,0,0,0-.5.5v4a.51.51,0,0,0,.5.5h3a.51.51,0,0,0,.5-.5Z"/><path d="M10.5,17.5V17H8V15h2v2.5h.5v0H11v-3a.51.51,0,0,0-.5-.5h-3a.51.51,0,0,0-.5.5v3a.51.51,0,0,0,.5.5h3a.51.51,0,0,0,.5-.5Z"/><path d="M15.5,17.5V17H13V15h2v2.5h.5v0H16v-3a.51.51,0,0,0-.5-.5h-3a.51.51,0,0,0-.5.5v3a.51.51,0,0,0,.5.5h3a.51.51,0,0,0,.5-.5Z"/><path d="M5.5,17.5V17H3V15H5v2.5h.5v0H6v-3a.51.51,0,0,0-.5-.5h-3a.47.47,0,0,0-.35.15A.47.47,0,0,0,2,14.5v3a.47.47,0,0,0,.15.35A.47.47,0,0,0,2.5,18h3a.51.51,0,0,0,.5-.5Z"/><path d="M10.5,12.5V12H8V10h2v2.5h.5v0H11v-3a.51.51,0,0,0-.5-.5h-3a.51.51,0,0,0-.5.5v3a.51.51,0,0,0,.5.5h3a.51.51,0,0,0,.5-.5Z"/><path d="M15.5,12.5V12H13V10h2v2.5h.5v0H16v-3a.51.51,0,0,0-.5-.5h-3a.51.51,0,0,0-.5.5v3a.51.51,0,0,0,.5.5h3a.51.51,0,0,0,.5-.5Z"/><path d="M5.5,12.5V12H3V10H5v2.5h.5v0H6v-3A.51.51,0,0,0,5.5,9h-3a.47.47,0,0,0-.35.15A.47.47,0,0,0,2,9.5v3a.47.47,0,0,0,.15.35A.47.47,0,0,0,2.5,13h3a.51.51,0,0,0,.5-.5Z"/><path d="M10.5,7.5V7H8V5h2V7.5h.5v0H11v-3a.51.51,0,0,0-.5-.5h-3a.51.51,0,0,0-.5.5v3a.51.51,0,0,0,.5.5h3a.51.51,0,0,0,.5-.5Z"/><path d="M15.5,7.5V7H13V5h2V7.5h.5v0H16v-3a.51.51,0,0,0-.5-.5h-3a.51.51,0,0,0-.5.5v3a.51.51,0,0,0,.5.5h3a.51.51,0,0,0,.5-.5Z"/><path d="M5.5,7.5V7H3V5H5V7.5h.5v0H6v-3A.51.51,0,0,0,5.5,4h-3a.47.47,0,0,0-.35.15A.47.47,0,0,0,2,4.5v3a.47.47,0,0,0,.15.35A.47.47,0,0,0,2.5,8h3A.51.51,0,0,0,6,7.5Z"/><path d="M15.5.5V0H2.5a.47.47,0,0,0-.35.15l-2,2A.47.47,0,0,0,0,2.69.5.5,0,0,0,.5,3h17A.5.5,0,0,0,18,2.69a.47.47,0,0,0-.11-.54l-2-2A.47.47,0,0,0,15.5,0V.5l-.35.35L16.29,2H1.71l1-1H15.5V.5l-.35.35Z"/></g></g></svg>