<svg class="hospital" xmlns="http://www.w3.org/2000/svg" viewBox="0 0 24 23.5"><title>elderly</title><g id="Layer_2" data-name="Layer 2"><g id="Layer_3" data-name="Layer 3"><path d="M16.4,11.49a2.86,2.86,0,0,0,1.16,2.22,4,4,0,0,0,2.47.84A3.65,3.65,0,0,0,22,14a3.93,3.93,0,0,0,1.48-1.81.49.49,0,0,0,0-.47.52.52,0,0,0-.42-.23,1.12,1.12,0,0,1-.85-.35A5.45,5.45,0,0,1,21,8.72a47.41,47.41,0,0,0-1.51-5.51A6.11,6.11,0,0,0,18,1,3.81,3.81,0,0,0,15.44,0a8.31,8.31,0,0,0-3.66,1.05l.22.44.22-.44A8.31,8.31,0,0,0,8.56,0,3.89,3.89,0,0,0,6.48.57a5.66,5.66,0,0,0-2.1,2.89C3.7,5.24,3.37,7.34,2.9,9a6.27,6.27,0,0,1-.82,1.91,1.54,1.54,0,0,1-.49.47,1.1,1.1,0,0,1-.59.15.52.52,0,0,0-.42.23.49.49,0,0,0,0,.47A3.93,3.93,0,0,0,2,14a3.59,3.59,0,0,0,2,.55,4.08,4.08,0,0,0,2.48-.84,2.86,2.86,0,0,0,1.16-2.22.5.5,0,0,0-1,0,1.85,1.85,0,0,1-.78,1.43A3,3,0,0,1,4,13.55a2.56,2.56,0,0,1-1.41-.4,2.88,2.88,0,0,1-1.1-1.35L1,12v.5a2.16,2.16,0,0,0,1.55-.63A6.21,6.21,0,0,0,3.93,9,48.85,48.85,0,0,1,5.4,3.59,5.12,5.12,0,0,1,6.63,1.7,2.78,2.78,0,0,1,8.56,1a7.53,7.53,0,0,1,3.22.94.49.49,0,0,0,.44,0A7.53,7.53,0,0,1,15.44,1,2.75,2.75,0,0,1,17,1.42a4.66,4.66,0,0,1,1.7,2.4c.63,1.63,1,3.7,1.45,5.41a6.9,6.9,0,0,0,1,2.23,2.72,2.72,0,0,0,.8.75,2.11,2.11,0,0,0,1.09.28V12l-.46-.19a2.88,2.88,0,0,1-1.1,1.35,2.54,2.54,0,0,1-1.41.4,3,3,0,0,1-1.85-.63,1.82,1.82,0,0,1-.78-1.43.5.5,0,0,0-1,0Z"/><path d="M12,16l.16.48a10.26,10.26,0,0,0,3-1.65,6.11,6.11,0,0,0,2.3-3.74L17,11v.5a1.48,1.48,0,0,0,1.26-.69,2.43,2.43,0,0,0,.37-1.31,2.39,2.39,0,0,0-.37-1.3A1.51,1.51,0,0,0,17,7.49V8l.48-.12-.5-2a.49.49,0,0,0-.48-.38c-1.94,0-2.82-.36-3.26-.7a2.09,2.09,0,0,1-.47-.54,3.54,3.54,0,0,0-.42-.61.48.48,0,0,0-.7,0,3.54,3.54,0,0,0-.42.61,2,2,0,0,1-.89.79,6.73,6.73,0,0,1-2.84.45A.49.49,0,0,0,7,5.87l-.5,2L7,8v-.5a1.51,1.51,0,0,0-1.26.7,2.3,2.3,0,0,0-.36,1.3,2.34,2.34,0,0,0,.36,1.31A1.48,1.48,0,0,0,7,11.49V11l-.49.09a6.11,6.11,0,0,0,2.3,3.74,10.26,10.26,0,0,0,3,1.65.58.58,0,0,0,.32,0L12,16l.16-.47A8.83,8.83,0,0,1,9.44,14a5.12,5.12,0,0,1-1.95-3.13A.5.5,0,0,0,7,10.49a.48.48,0,0,1-.43-.24,1.34,1.34,0,0,1-.19-.76,1.3,1.3,0,0,1,.19-.75A.51.51,0,0,1,7,8.49a.48.48,0,0,0,.48-.37l.5-2L7.5,6v.5a6.19,6.19,0,0,0,3.87-.91,3,3,0,0,0,.7-.8,4.61,4.61,0,0,1,.28-.43L12,4l-.35.36a4.61,4.61,0,0,1,.28.43,2.88,2.88,0,0,0,1.31,1.16,7.5,7.5,0,0,0,3.26.55V6L16,6.12l.5,2a.48.48,0,0,0,.48.37.51.51,0,0,1,.43.25,1.39,1.39,0,0,1,.2.75,1.42,1.42,0,0,1-.2.76.48.48,0,0,1-.43.24.5.5,0,0,0-.49.42,5.12,5.12,0,0,1-2,3.13,8.83,8.83,0,0,1-2.72,1.48L12,16l.16-.47Z"/><path d="M14.27,15.2A66.58,66.58,0,0,1,20.42,18a6.89,6.89,0,0,1,1.91,1.57A3.08,3.08,0,0,1,23,21.49v1H1v-1a3.08,3.08,0,0,1,.67-1.94,9.12,9.12,0,0,1,3.24-2.27C6.34,16.6,8,16,9.73,15.2a.51.51,0,0,0,.26-.66.5.5,0,0,0-.66-.26,68.21,68.21,0,0,0-6.26,2.84A7.47,7.47,0,0,0,.88,18.94,4.1,4.1,0,0,0,0,21.49V23a.47.47,0,0,0,.15.35.47.47,0,0,0,.35.15h23A.51.51,0,0,0,24,23V21.49a4.1,4.1,0,0,0-.88-2.55,9.92,9.92,0,0,0-3.6-2.56c-1.48-.71-3.17-1.35-4.85-2.1a.5.5,0,0,0-.66.26.51.51,0,0,0,.26.66Z"/><path d="M5,16.49a2.93,2.93,0,0,0,1.19,2.24,27.09,27.09,0,0,0,3.5,2.11,5.81,5.81,0,0,1,1.34,1A1.65,1.65,0,0,1,11.5,23a.5.5,0,0,0,1,0,3,3,0,0,0-1.19-2.24,28.19,28.19,0,0,0-3.5-2.1,5.81,5.81,0,0,1-1.34-1A1.65,1.65,0,0,1,6,16.49a.5.5,0,0,0-1,0Z"/><path d="M18,16.49A1.9,1.9,0,0,1,17.16,18a26.37,26.37,0,0,1-3.36,2,6.44,6.44,0,0,0-1.57,1.23A2.63,2.63,0,0,0,11.5,23a.5.5,0,0,0,1,0,1.9,1.9,0,0,1,.84-1.47,26.37,26.37,0,0,1,3.36-2,6.44,6.44,0,0,0,1.57-1.23A2.66,2.66,0,0,0,19,16.49a.5.5,0,0,0-1,0Z"/><path d="M9.5,8.5V8.44h0l-.12,0,.08.1,0-.06-.12,0,.08.1L9.4,8.42l0,.1,0,0L9.4,8.42l0,.1a.92.92,0,0,1,.31,0h.74l.07,0,0-.07,0,.06h0l0-.07,0,.06.08-.12-.13.06.05.06.08-.12-.13.06h0V8.5a.5.5,0,0,0,1,0A1.12,1.12,0,0,0,11.39,8a.9.9,0,0,0-.58-.44,2.89,2.89,0,0,0-.56-.06h-.5A1.71,1.71,0,0,0,9,7.63.78.78,0,0,0,8.61,8a1.12,1.12,0,0,0-.11.51.5.5,0,0,0,1,0Z"/><path d="M13.5,8.5V8.44h0l-.12,0,.08.1,0-.06-.12,0,.08.1-.06-.08,0,.1,0,0-.06-.08,0,.1a.92.92,0,0,1,.31,0h.74l.07,0,0-.07,0,.06h0l0-.07,0,.06.08-.12-.13.06.05.06.08-.12-.13.06h0V8.5a.5.5,0,0,0,1,0A1.12,1.12,0,0,0,15.39,8a.9.9,0,0,0-.58-.44,2.89,2.89,0,0,0-.56-.06h-.5a1.71,1.71,0,0,0-.76.14.78.78,0,0,0-.38.36,1.12,1.12,0,0,0-.11.51.5.5,0,0,0,1,0Z"/></g></g></svg>