<svg xmlns="http://www.w3.org/2000/svg" viewBox="0 0 24 24"><title>hospital</title><g id="Layer_2" data-name="Layer 2"><g id="Layer_3" data-name="Layer 3"><path d="M17,10.45V23.5a.5.5,0,0,0,1,0v-13a.5.5,0,0,0-1,0"/><path d="M7,23.5V10.44a.5.5,0,1,0-1,0V23.5a.5.5,0,0,0,1,0"/><path d="M18,23.5V13h5V23.5a.5.5,0,0,0,1,0v-11a.51.51,0,0,0-.5-.5h-6a.51.51,0,0,0-.5.5v11a.5.5,0,0,0,1,0Z"/><path d="M1,23.5V13H6V23.5a.5.5,0,0,0,1,0v-11a.51.51,0,0,0-.5-.5H.5a.47.47,0,0,0-.35.15A.47.47,0,0,0,0,12.5v11a.5.5,0,0,0,.5.5A.5.5,0,0,0,1,23.5Z"/><path d="M.5,24h23a.5.5,0,0,0,0-1H.5a.5.5,0,0,0,0,1"/><path d="M18.5,7H18A6,6,0,1,1,7.76,2.76,6,6,0,0,1,18,7h1a7,7,0,1,0-7,7,7,7,0,0,0,7-7Z"/><path d="M15.5,5.5V5H14V3.5a.51.51,0,0,0-.5-.5h-3a.5.5,0,0,0-.5.5V5H8.5a.51.51,0,0,0-.5.5v3a.51.51,0,0,0,.5.5H10v1.5a.51.51,0,0,0,.5.5h3a.51.51,0,0,0,.5-.5V9h1.5a.51.51,0,0,0,.5-.5v-3a.51.51,0,0,0-.5-.5v.5H15V8H13.5a.51.51,0,0,0-.5.5V10H11V8.5a.51.51,0,0,0-.5-.5H9V6h1.5a.5.5,0,0,0,.5-.5V4h2V5.5a.51.51,0,0,0,.5.5h2V5.5h0Z"/><path d="M2.5,15h2a.5.5,0,0,0,0-1h-2a.5.5,0,0,0,0,1"/><path d="M2.5,17h2a.5.5,0,0,0,0-1h-2a.5.5,0,0,0,0,1"/><path d="M2.5,19h2a.5.5,0,0,0,0-1h-2a.5.5,0,0,0,0,1"/><path d="M2.5,21h2a.5.5,0,0,0,0-1h-2a.5.5,0,0,0,0,1"/><path d="M19.5,15h2a.5.5,0,0,0,0-1h-2a.5.5,0,0,0,0,1"/><path d="M19.5,17h2a.5.5,0,0,0,0-1h-2a.5.5,0,0,0,0,1"/><path d="M19.5,19h2a.5.5,0,0,0,0-1h-2a.5.5,0,0,0,0,1"/><path d="M19.5,21h2a.5.5,0,0,0,0-1h-2a.5.5,0,0,0,0,1"/><path d="M8.5,16h1a.5.5,0,0,0,0-1h-1a.5.5,0,0,0,0,1"/><path d="M8.5,18h1a.5.5,0,0,0,0-1h-1a.5.5,0,0,0,0,1"/><path d="M8.5,20h1a.5.5,0,0,0,0-1h-1a.5.5,0,0,0,0,1"/><path d="M11.5,16h1a.5.5,0,0,0,0-1h-1a.5.5,0,0,0,0,1"/><path d="M11.5,18h1a.5.5,0,0,0,0-1h-1a.5.5,0,0,0,0,1"/><path d="M11.5,20h1a.5.5,0,0,0,0-1h-1a.5.5,0,0,0,0,1"/><path d="M14.5,16h1a.5.5,0,0,0,0-1h-1a.5.5,0,0,0,0,1"/><path d="M14.5,18h1a.5.5,0,0,0,0-1h-1a.5.5,0,0,0,0,1"/><path d="M14.5,20h1a.5.5,0,0,0,0-1h-1a.5.5,0,0,0,0,1"/><path d="M13.5,23.5V23H11V22h2v1.5h.5v0H14v-2a.51.51,0,0,0-.5-.5h-3a.51.51,0,0,0-.5.5v2a.51.51,0,0,0,.5.5h3a.51.51,0,0,0,.5-.5Z"/></g></g></svg>