<svg class="hospital" xmlns="http://www.w3.org/2000/svg" viewBox="0 0 24 15"><title>hotels</title><g id="Layer_2" data-name="Layer 2"><g id="Layer_3" data-name="Layer 3"><path d="M22.5,12.5V12H1.5a.5.5,0,0,0-.46.31.47.47,0,0,0,.11.54l2,2A.47.47,0,0,0,3.5,15h17a.47.47,0,0,0,.35-.15l2-2a.47.47,0,0,0,.11-.54A.5.5,0,0,0,22.5,12v.5l-.35-.35L20.29,14H3.71l-1-1H22.5v-.5l-.35-.35Z"/><path d="M.5,13h23a.5.5,0,0,0,0-1H.5a.5.5,0,0,0,0,1"/><path d="M13.5,2H13a1,1,0,1,1-1-1,1,1,0,0,1,1,1h1a2,2,0,1,0-2,2,2,2,0,0,0,2-2Z"/><path d="M3.5,12.5a8.5,8.5,0,0,1,17,0,.5.5,0,0,0,1,0,9.5,9.5,0,0,0-19,0,.5.5,0,0,0,1,0Z"/><path d="M6.94,9.27A6,6,0,0,1,12,6.5a.5.5,0,0,0,0-1A7,7,0,0,0,6.1,8.73a.5.5,0,1,0,.84.54Z"/></g></g></svg>