<svg class="hospital" xmlns="http://www.w3.org/2000/svg" viewBox="0 0 24 24"><title>newspapers</title><g id="Layer_2" data-name="Layer 2"><g id="Layer_3" data-name="Layer 3"><path d="M3.5,4h11a.5.5,0,0,0,0-1H3.5a.5.5,0,0,0,0,1"/><path d="M8.5,12.5V12H4V7H8v5.5h.5v0H9v-6A.51.51,0,0,0,8.5,6h-5a.51.51,0,0,0-.5.5v6a.51.51,0,0,0,.5.5h5a.51.51,0,0,0,.5-.5Z"/><path d="M11.5,9h3a.5.5,0,0,0,0-1h-3a.5.5,0,0,0,0,1"/><path d="M10.5,11h4a.5.5,0,0,0,0-1h-4a.5.5,0,0,0,0,1"/><path d="M10.5,13h4a.5.5,0,0,0,0-1h-4a.5.5,0,0,0,0,1"/><path d="M3.5,15h11a.5.5,0,0,0,0-1H3.5a.5.5,0,0,0,0,1"/><path d="M3.5,17h11a.5.5,0,0,0,0-1H3.5a.5.5,0,0,0,0,1"/><path d="M3.5,19h11a.5.5,0,0,0,0-1H3.5a.5.5,0,0,0,0,1"/><path d="M19.5,6H21V20.5a.5.5,0,0,1-1,0V2a.47.47,0,0,0-.15-.35.47.47,0,0,0-.35-.15h-2a.47.47,0,0,0-.35.15A.47.47,0,0,0,17,2V4a.5.5,0,0,0,1,0V2.5h1v18a1.5,1.5,0,0,0,3,0V5.5a.51.51,0,0,0-.5-.5h-2a.5.5,0,0,0,0,1Z"/><path d="M20.5,23H3.5A2.5,2.5,0,0,1,1,20.5V1H17V20.5a3.5,3.5,0,0,0,7,0V3.5a.51.51,0,0,0-.5-.5h-4a.5.5,0,0,0,0,1H23V20.5a2.5,2.5,0,0,1-5,0V.5a.47.47,0,0,0-.15-.35A.47.47,0,0,0,17.5,0H.5A.47.47,0,0,0,.15.15.47.47,0,0,0,0,.5v20A3.5,3.5,0,0,0,3.5,24h17a.5.5,0,0,0,0-1Z"/></g></g></svg>