<svg class="hospital" xmlns="http://www.w3.org/2000/svg" viewBox="0 0 24 24"><title>office</title><g id="Layer_2" data-name="Layer 2"><g id="Layer_3" data-name="Layer 3"><path d="M.5,24h23a.5.5,0,0,0,0-1H.5a.5.5,0,0,0,0,1"/><path d="M16.5,23.5V23H8V5h8V23.5h.5v0H17V4.5a.51.51,0,0,0-.5-.5h-9a.51.51,0,0,0-.5.5v19a.51.51,0,0,0,.5.5h9a.51.51,0,0,0,.5-.5Z"/><path d="M22.5,13.5V13h-4a.51.51,0,0,0-.5.5v10a.51.51,0,0,0,.5.5h4a.51.51,0,0,0,.5-.5v-10a.51.51,0,0,0-.5-.5v.5H22V23H19V14h3.5v-.5h0Z"/><path d="M5.5,13.5V13h-4a.47.47,0,0,0-.35.15A.47.47,0,0,0,1,13.5v10a.47.47,0,0,0,.15.35A.47.47,0,0,0,1.5,24h4a.51.51,0,0,0,.5-.5v-10a.51.51,0,0,0-.5-.5v.5H5V23H2V14H5.5v-.5h0Z"/><path d="M5,13.5v-1a.5.5,0,0,0-1,0v1a.5.5,0,0,0,1,0"/><path d="M20,13.5v-1a.5.5,0,0,0-1,0v1a.5.5,0,0,0,1,0"/><path d="M13.5,2.5V2h-3a.47.47,0,0,0-.35.15A.47.47,0,0,0,10,2.5v2a.51.51,0,0,0,.5.5h3a.51.51,0,0,0,.5-.5v-2a.47.47,0,0,0-.15-.35A.47.47,0,0,0,13.5,2v.5H13V4H11V3h2.5V2.5h0Z"/><path d="M13,2.5V.5a.5.5,0,0,0-1,0v2a.5.5,0,0,0,1,0"/><path d="M9.5,8h5a.5.5,0,0,0,0-1h-5a.5.5,0,0,0,0,1"/><path d="M9.5,11h5a.5.5,0,0,0,0-1h-5a.5.5,0,0,0,0,1"/><path d="M9.5,14h5a.5.5,0,0,0,0-1h-5a.5.5,0,0,0,0,1"/><path d="M9.5,17h5a.5.5,0,0,0,0-1h-5a.5.5,0,0,0,0,1"/><path d="M9.5,20h5a.5.5,0,0,0,0-1h-5a.5.5,0,0,0,0,1"/></g></g></svg>