<svg class="hospital" xmlns="http://www.w3.org/2000/svg" viewBox="0 0 24 23.94"><title>prison</title><g id="Layer_2" data-name="Layer 2"><g id="Layer_3" data-name="Layer 3"><path d="M24,23.44V20a4.63,4.63,0,0,0-2.92-4.31h0l-6.23-1.84a.5.5,0,1,0-.28,1l6.22,1.84.14-.48-.17.47A3.63,3.63,0,0,1,23,20v3.47a.5.5,0,0,0,1,0Z"/><path d="M9.18,13.81,3,15.65h0A4.5,4.5,0,0,0,0,19.88v3.56a.5.5,0,0,0,1,0V19.88A3.49,3.49,0,0,1,3.27,16.6l-.17-.47.14.48,6.22-1.84a.5.5,0,0,0-.28-1Z"/><path d="M12,14.88a3.5,3.5,0,0,1-1.21-.32A6.69,6.69,0,0,1,8.56,13,3.9,3.9,0,0,1,7.5,10.38.48.48,0,0,0,7.35,10,.51.51,0,0,0,7,9.87a.48.48,0,0,1-.43-.24,1.3,1.3,0,0,1-.19-.75,1.32,1.32,0,0,1,.19-.76A.51.51,0,0,1,7,7.87a.5.5,0,0,0,.35-.14.49.49,0,0,0,.15-.35v-5a.58.58,0,0,1,.25-.45,4,4,0,0,1,1.68-.68A12.8,12.8,0,0,1,12,1a10.94,10.94,0,0,1,3.28.44,3.2,3.2,0,0,1,1,.49.58.58,0,0,1,.25.45v5a.49.49,0,0,0,.15.35.5.5,0,0,0,.35.14.51.51,0,0,1,.43.25,1.53,1.53,0,0,1,0,1.51.48.48,0,0,1-.43.24.51.51,0,0,0-.35.15.48.48,0,0,0-.15.36,4.28,4.28,0,0,1-1.76,3.23,6.51,6.51,0,0,1-1.53,1,3.5,3.5,0,0,1-1.21.32.5.5,0,0,0-.5.5.5.5,0,0,0,.5.5,4.25,4.25,0,0,0,1.61-.41,7.54,7.54,0,0,0,2.58-1.86,4.93,4.93,0,0,0,1.31-3.23H17v.5a1.51,1.51,0,0,0,1.26-.7,2.49,2.49,0,0,0,0-2.61A1.48,1.48,0,0,0,17,6.88v.5h.5v-5a1.6,1.6,0,0,0-.6-1.2A4.87,4.87,0,0,0,14.79.27,13.76,13.76,0,0,0,12,0,12.15,12.15,0,0,0,8.4.49a4.11,4.11,0,0,0-1.3.68,1.64,1.64,0,0,0-.6,1.21v5H7v-.5a1.48,1.48,0,0,0-1.26.69,2.34,2.34,0,0,0-.36,1.31,2.33,2.33,0,0,0,.36,1.3,1.51,1.51,0,0,0,1.26.7v-.5H6.5a5.32,5.32,0,0,0,2.12,4,7.26,7.26,0,0,0,1.77,1.08,4,4,0,0,0,1.61.4.5.5,0,1,0,0-1Z"/><path d="M16.72,3l.11.15L16.73,3h0l.11.15L16.73,3A9.45,9.45,0,0,1,12,3.88,13.11,13.11,0,0,1,8.33,3.4a6.4,6.4,0,0,1-.82-.32L7.32,3l0,0h0l-.1.16L7.28,3h0l-.1.16L7.28,3l-.56.83C6.8,3.84,8.4,4.88,12,4.87s5.2-1,5.28-1.08L16.72,3Z"/><path d="M16.72,5.46l.11.16-.1-.16h0l.11.16-.1-.16A9.45,9.45,0,0,1,12,6.38,13.11,13.11,0,0,1,8.33,5.9a6.4,6.4,0,0,1-.82-.32l-.19-.1,0,0h0l-.1.16.11-.16h0l-.1.16.11-.16-.56.83C6.8,6.34,8.4,7.38,12,7.37s5.2-1,5.28-1.08l-.56-.83Z"/><path d="M10,14.38v-1a1.51,1.51,0,0,1,1.5-1.51h1a1.5,1.5,0,0,1,1.5,1.5v1h1v-1a2.49,2.49,0,0,0-2.5-2.5h-1A2.49,2.49,0,0,0,9,13.38v1Z"/><polyline points="12.5 15.38 12.5 13.38 11.5 13.38 11.5 15.38"/><polyline points="0.8 18.97 23.16 18.97 23.16 17.97 0.8 17.97"/><polyline points="0.52 20.97 23.5 20.97 23.5 19.97 0.52 19.97"/><polyline points="0.5 22.97 23.5 22.97 23.5 21.97 0.5 21.97"/><circle cx="10" cy="8.88" r="0.5"/><circle cx="14" cy="8.88" r="0.5"/></g></g></svg>