<svg class="hospital" xmlns="http://www.w3.org/2000/svg" viewBox="0 0 24 24"><title>school33</title><g id="Layer_2" data-name="Layer 2"><g id="Layer_1-2" data-name="Layer 1"><path d="M.5,24h23a.5.5,0,0,0,0-1H.5a.5.5,0,0,0,0,1"/><path d="M19.5,23.5V23H5V5H19V23.5h.5v0H20V4.5a.51.51,0,0,0-.5-.5H4.5a.51.51,0,0,0-.5.5v19a.51.51,0,0,0,.5.5h15a.51.51,0,0,0,.5-.5Z"/><path d="M20.5,3.5,20.67,3l-8.5-3a.5.5,0,0,0-.34,0L3.33,3A.5.5,0,0,0,3,3.5v1a.51.51,0,0,0,.5.5h17a.51.51,0,0,0,.5-.5v-1A.5.5,0,0,0,20.67,3l-.17.47H20V4H4V3.85L12,1,20.33,4l.17-.47h0Z"/><path d="M13.5,23.5V23H11V19h2v4.5h.5v0H14v-5a.51.51,0,0,0-.5-.5h-3a.51.51,0,0,0-.5.5v5a.51.51,0,0,0,.5.5h3a.51.51,0,0,0,.5-.5Z"/><path d="M8.5,8.5V8H7V7H8V8.5h.5v0H9v-2A.51.51,0,0,0,8.5,6h-2a.51.51,0,0,0-.5.5v2a.51.51,0,0,0,.5.5h2A.51.51,0,0,0,9,8.5Z"/><path d="M13.5,8.5V8H11V7h2V8.5h.5v0H14v-2a.51.51,0,0,0-.5-.5h-3a.51.51,0,0,0-.5.5v2a.51.51,0,0,0,.5.5h3a.51.51,0,0,0,.5-.5Z"/><path d="M17.5,8.5V8H16V7h1V8.5h.5v0H18v-2a.51.51,0,0,0-.5-.5h-2a.51.51,0,0,0-.5.5v2a.51.51,0,0,0,.5.5h2a.51.51,0,0,0,.5-.5Z"/><path d="M8.5,12.5V12H7V11H8v1.5h.5v0H9v-2a.51.51,0,0,0-.5-.5h-2a.51.51,0,0,0-.5.5v2a.51.51,0,0,0,.5.5h2a.51.51,0,0,0,.5-.5Z"/><path d="M13.5,12.5V12H11V11h2v1.5h.5v0H14v-2a.51.51,0,0,0-.5-.5h-3a.51.51,0,0,0-.5.5v2a.51.51,0,0,0,.5.5h3a.51.51,0,0,0,.5-.5Z"/><path d="M17.5,12.5V12H16V11h1v1.5h.5v0H18v-2a.51.51,0,0,0-.5-.5h-2a.51.51,0,0,0-.5.5v2a.51.51,0,0,0,.5.5h2a.51.51,0,0,0,.5-.5Z"/><path d="M8.5,16.5V16H7V15H8v1.5h.5v0H9v-2a.51.51,0,0,0-.5-.5h-2a.51.51,0,0,0-.5.5v2a.51.51,0,0,0,.5.5h2a.51.51,0,0,0,.5-.5Z"/><path d="M13.5,16.5V16H11V15h2v1.5h.5v0H14v-2a.51.51,0,0,0-.5-.5h-3a.51.51,0,0,0-.5.5v2a.51.51,0,0,0,.5.5h3a.51.51,0,0,0,.5-.5Z"/><path d="M17.5,16.5V16H16V15h1v1.5h.5v0H18v-2a.51.51,0,0,0-.5-.5h-2a.51.51,0,0,0-.5.5v2a.51.51,0,0,0,.5.5h2a.51.51,0,0,0,.5-.5Z"/><path d="M8.5,20.5V20H7V19H8v1.5h.5v0H9v-2a.51.51,0,0,0-.5-.5h-2a.51.51,0,0,0-.5.5v2a.51.51,0,0,0,.5.5h2a.51.51,0,0,0,.5-.5Z"/><path d="M17.5,20.5V20H16V19h1v1.5h.5v0H18v-2a.51.51,0,0,0-.5-.5h-2a.51.51,0,0,0-.5.5v2a.51.51,0,0,0,.5.5h2a.51.51,0,0,0,.5-.5Z"/></g></g></svg>