<svg class="fea-img" xmlns="http://www.w3.org/2000/svg" viewBox="0 0 24 23.97"><title>Asset 7mdpi</title><g id="Layer_2" data-name="Layer 2"><g id="Finantial_Care" data-name="Finantial Care"><g id="_Group_" data-name="&lt;Group&gt;"><g id="_Group_2" data-name="&lt;Group&gt;"><g id="_Group_3" data-name="&lt;Group&gt;"><path id="_Compound_Path_" data-name="&lt;Compound Path&gt;" d="M3.5,22H.5a.5.5,0,0,1-.5-.5v-9a.48.48,0,0,1,.16-.36A.52.52,0,0,1,.53,12c1,.06,4.46.32,5.31,1.14a.5.5,0,0,1,.16.4,53.61,53.61,0,0,1-2,8.12A.51.51,0,0,1,3.5,22ZM1,21H3.13A50.73,50.73,0,0,0,5,13.75,14.7,14.7,0,0,0,1,13Z"/></g><g id="_Group_4" data-name="&lt;Group&gt;"><path id="_Path_" data-name="&lt;Path&gt;" d="M13.4,24a5.68,5.68,0,0,1-2.08-.5L3.84,21A.5.5,0,1,1,4.16,20l7.5,2.5c1.8.68,1.95.73,6.15-1l5-2.26a2.29,2.29,0,0,0-2.32-.75l-3.83.95a.49.49,0,1,1-.24-1l3.83-1A3.27,3.27,0,0,1,24,19.28a.48.48,0,0,1,0,.39.53.53,0,0,1-.26.29l-5.5,2.5C15.6,23.53,14.41,24,13.4,24Z"/></g><g id="_Group_5" data-name="&lt;Group&gt;"><path id="_Path_2" data-name="&lt;Path&gt;" d="M14.43,19.93a4,4,0,0,1-.69-.07L9.4,19A.5.5,0,0,1,9,18.4.51.51,0,0,1,9.6,18l4.34.87a2.5,2.5,0,0,0,1.09,0l1-.24c-.06-.91-.5-1.35-1.61-1.63l-9-2a.5.5,0,0,1-.38-.6.51.51,0,0,1,.6-.38l9,2c1.66.42,2.39,1.29,2.39,2.83V19a.49.49,0,0,1-.38.48l-1.34.34A3.54,3.54,0,0,1,14.43,19.93Z"/></g></g><g id="_Group_6" data-name="&lt;Group&gt;"><g id="_Group_7" data-name="&lt;Group&gt;"><path id="_Path_3" data-name="&lt;Path&gt;" d="M22.33,18.53h-.1a.5.5,0,0,1-.38-.6A6.71,6.71,0,0,0,22,16.5c0-2-4-7.38-5.74-9.5H12.73c-.77.93-4.36,5.32-5.26,7.66a.5.5,0,0,1-.94-.36c1.07-2.77,5.4-7.91,5.59-8.12A.46.46,0,0,1,12.5,6h4a.53.53,0,0,1,.39.18C17.51,6.94,23,13.66,23,16.5a7.43,7.43,0,0,1-.18,1.64A.5.5,0,0,1,22.33,18.53Z"/></g><g id="_Group_8" data-name="&lt;Group&gt;"><path id="_Path_4" data-name="&lt;Path&gt;" d="M18.5,7h-8a.5.5,0,0,1,0-1h8a.5.5,0,0,1,0,1Z"/></g><g id="_Group_9" data-name="&lt;Group&gt;"><path id="_Compound_Path_2" data-name="&lt;Compound Path&gt;" d="M16.5,7h-4a.51.51,0,0,1-.31-.11c-.43-.34-4.2-3.4-4.36-5.25a1.23,1.23,0,0,1,.3-1C9-.27,11.13,1,12.37,1.8,12.94,1,13.78,0,14.5,0s1.56,1,2.13,1.8C17.87,1,20-.27,20.88.67a1.26,1.26,0,0,1,.29,1C21,3.49,17.24,6.55,16.81,6.89A.51.51,0,0,1,16.5,7ZM12.68,6h3.64c1.5-1.22,3.76-3.41,3.86-4.45a.31.31,0,0,0-.05-.22c-.32-.19-1.95.58-3.34,1.58a.47.47,0,0,1-.38.08.45.45,0,0,1-.33-.22A5.5,5.5,0,0,0,14.49,1a5.77,5.77,0,0,0-1.57,1.77.45.45,0,0,1-.33.22.47.47,0,0,1-.38-.08c-1.53-1.1-3.05-1.75-3.34-1.57,0,0-.06.06,0,.21C8.92,2.59,11.18,4.78,12.68,6Z"/></g><g id="_Group_10" data-name="&lt;Group&gt;"><path id="_Path_5" data-name="&lt;Path&gt;" d="M16,17.5a.5.5,0,0,1-.32-.88A.85.85,0,0,0,16,16c0-.49-.47-.8-1.49-1l-.11,0c-1.62-.3-2.4-1-2.4-2a2.3,2.3,0,0,1,2.5-2A2.32,2.32,0,0,1,17,12.86a.5.5,0,0,1-.46.54A.51.51,0,0,1,16,13c0-.53-.71-.95-1.5-.95s-1.5.46-1.5,1,.47.8,1.49,1l.11,0c1.62.3,2.4,1,2.4,2a1.78,1.78,0,0,1-.69,1.38A.49.49,0,0,1,16,17.5Z"/></g><g id="_Group_11" data-name="&lt;Group&gt;"><path id="_Path_6" data-name="&lt;Path&gt;" d="M14.5,16.5A.5.5,0,0,1,14,16V10.5a.5.5,0,0,1,1,0V16A.5.5,0,0,1,14.5,16.5Z"/></g></g></g></g></g></svg>