<svg class="fea-img" xmlns="http://www.w3.org/2000/svg" viewBox="0 0 23.59 22.59"><title>Asset 2mdpi</title><g id="Layer_2" data-name="Layer 2"><g id="Magic_Wand" data-name="Magic Wand"><g id="_Group_" data-name="&lt;Group&gt;"><g id="_Group_2" data-name="&lt;Group&gt;"><path id="_Path_" data-name="&lt;Path&gt;" d="M22,22.59a1.51,1.51,0,0,1-1.06-.44L10.65,11.85a.49.49,0,0,1,.7-.7l10.3,10.29a.48.48,0,0,0,.7,0l.09-.09a.5.5,0,0,0,0-.7L10.65,8.85a.49.49,0,0,1,.7-.7l11.8,11.79a1.51,1.51,0,0,1,0,2.12l-.09.09A1.51,1.51,0,0,1,22,22.59Z"/></g><g id="_Group_3" data-name="&lt;Group&gt;"><path id="_Compound_Path_" data-name="&lt;Compound Path&gt;" d="M9.5,11a.57.57,0,0,1-.28-.08L6.5,9.1,3.78,10.92a.5.5,0,0,1-.55,0A.52.52,0,0,1,3,10.43l.45-3.12L.3,6A.5.5,0,0,1,.3,5L3.45,3.69,3,.57A.52.52,0,0,1,3.23.08a.5.5,0,0,1,.55,0L6.5,1.9,9.22.08a.5.5,0,0,1,.55,0A.52.52,0,0,1,10,.57L9.55,3.69,12.7,5a.5.5,0,0,1,0,.92L9.55,7.31,10,10.43a.52.52,0,0,1-.23.49A.45.45,0,0,1,9.5,11Zm-3-3a.57.57,0,0,1,.28.08L8.85,9.46,8.5,7.07a.52.52,0,0,1,.3-.53l2.43-1-2.43-1a.52.52,0,0,1-.3-.53l.35-2.39L6.78,2.92a.52.52,0,0,1-.56,0L4.15,1.54,4.5,3.93a.52.52,0,0,1-.3.53l-2.43,1,2.43,1a.52.52,0,0,1,.3.53L4.15,9.46,6.22,8.08A.57.57,0,0,1,6.5,8Z"/></g><g id="_Group_4" data-name="&lt;Group&gt;"><path id="_Path_2" data-name="&lt;Path&gt;" d="M6.52,1A.5.5,0,0,1,6,.5.49.49,0,0,1,6.51,0h0A.5.5,0,0,1,7,.5.5.5,0,0,1,6.52,1Z"/></g><g id="_Group_5" data-name="&lt;Group&gt;"><path id="_Path_3" data-name="&lt;Path&gt;" d="M11.52,3a.5.5,0,0,1-.5-.5.49.49,0,0,1,.49-.5h0a.5.5,0,0,1,0,1Z"/></g><g id="_Group_6" data-name="&lt;Group&gt;"><path id="_Path_4" data-name="&lt;Path&gt;" d="M1.52,3A.5.5,0,0,1,1,2.5.49.49,0,0,1,1.51,2h0a.5.5,0,0,1,0,1Z"/></g><g id="_Group_7" data-name="&lt;Group&gt;"><path id="_Path_5" data-name="&lt;Path&gt;" d="M6.52,11a.5.5,0,0,1-.5-.5.49.49,0,0,1,.49-.5h0a.5.5,0,0,1,0,1Z"/></g><g id="_Group_8" data-name="&lt;Group&gt;"><path id="_Path_6" data-name="&lt;Path&gt;" d="M1.52,9A.5.5,0,0,1,1,8.5.49.49,0,0,1,1.51,8h0a.5.5,0,0,1,0,1Z"/></g><g id="_Group_9" data-name="&lt;Group&gt;"><path id="_Path_7" data-name="&lt;Path&gt;" d="M17,17.5a.47.47,0,0,1-.35-.15.48.48,0,0,1,0-.7l1-1a.49.49,0,1,1,.7.7l-1,1A.47.47,0,0,1,17,17.5Z"/></g></g></g></g></svg>