<svg class="fea-img" xmlns="http://www.w3.org/2000/svg" viewBox="0 0 24 24"><title>Asset 3mdpi</title><g id="Layer_2" data-name="Layer 2"><g id="Artboard"><g id="_Group_" data-name="&lt;Group&gt;"><g id="_Group_2" data-name="&lt;Group&gt;"><path id="_Compound_Path_" data-name="&lt;Compound Path&gt;" d="M19.5,20H4.5a.5.5,0,0,1-.5-.5V4.5A.5.5,0,0,1,4.5,4h15a.5.5,0,0,1,.5.5v15A.5.5,0,0,1,19.5,20ZM5,19H19V5H5Z"/></g><g id="_Group_3" data-name="&lt;Group&gt;"><path id="_Path_" data-name="&lt;Path&gt;" d="M4.5,3A.5.5,0,0,1,4,2.5V.5a.5.5,0,0,1,1,0v2A.5.5,0,0,1,4.5,3Z"/></g><g id="_Group_4" data-name="&lt;Group&gt;"><path id="_Path_2" data-name="&lt;Path&gt;" d="M4.5,24a.5.5,0,0,1-.5-.5v-2a.5.5,0,0,1,1,0v2A.5.5,0,0,1,4.5,24Z"/></g><g id="_Group_5" data-name="&lt;Group&gt;"><path id="_Path_3" data-name="&lt;Path&gt;" d="M2.5,20H.5a.5.5,0,0,1,0-1h2a.5.5,0,0,1,0,1Z"/></g><g id="_Group_6" data-name="&lt;Group&gt;"><path id="_Path_4" data-name="&lt;Path&gt;" d="M2.5,5H.5a.5.5,0,0,1,0-1h2a.5.5,0,0,1,0,1Z"/></g><g id="_Group_7" data-name="&lt;Group&gt;"><path id="_Path_5" data-name="&lt;Path&gt;" d="M23.5,5h-2a.5.5,0,0,1,0-1h2a.5.5,0,0,1,0,1Z"/></g><g id="_Group_8" data-name="&lt;Group&gt;"><path id="_Path_6" data-name="&lt;Path&gt;" d="M19.5,3a.5.5,0,0,1-.5-.5V.5a.5.5,0,0,1,1,0v2A.5.5,0,0,1,19.5,3Z"/></g><g id="_Group_9" data-name="&lt;Group&gt;"><path id="_Path_7" data-name="&lt;Path&gt;" d="M19.5,24a.5.5,0,0,1-.5-.5v-2a.5.5,0,0,1,1,0v2A.5.5,0,0,1,19.5,24Z"/></g><g id="_Group_10" data-name="&lt;Group&gt;"><path id="_Path_8" data-name="&lt;Path&gt;" d="M23.5,20h-2a.5.5,0,0,1,0-1h2a.5.5,0,0,1,0,1Z"/></g></g></g></g></svg>