<svg class="fea-img" xmlns="http://www.w3.org/2000/svg" viewBox="0 0 24 24"><title>Asset 9mdpi</title><g id="Layer_2" data-name="Layer 2"><g id="Dispacher_1" data-name="Dispacher 1"><g id="_Group_" data-name="&lt;Group&gt;"><g id="_Group_2" data-name="&lt;Group&gt;"><ellipse id="_Path_" data-name="&lt;Path&gt;" cx="12.5" cy="14" rx="1.5" ry="1"/></g><g id="_Group_3" data-name="&lt;Group&gt;"><g id="_Group_4" data-name="&lt;Group&gt;"><path id="_Compound_Path_" data-name="&lt;Compound Path&gt;" d="M12,17c-2.46,0-4.65-2-5.56-5C5.62,12,5,10.89,5,9.5a4.11,4.11,0,0,1,.15-1.13A7,7,0,0,1,5,7,7,7,0,0,1,19,7a7,7,0,0,1-.15,1.37A4.11,4.11,0,0,1,19,9.5c0,1.39-.61,2.45-1.44,2.5C16.65,15,14.46,17,12,17ZM6.79,10.92,7,11a.51.51,0,0,1,.31.33C8,14.1,9.88,16,12,16s4-1.9,4.72-4.72a.51.51,0,0,1,.3-.34.48.48,0,0,1,.45,0c.17,0,.53-.51.53-1.48a3.16,3.16,0,0,0-.14-.95.5.5,0,0,1,0-.27A5.66,5.66,0,0,0,18,7,6,6,0,0,0,6,7a5.66,5.66,0,0,0,.16,1.28.5.5,0,0,1,0,.27A3.16,3.16,0,0,0,6,9.5c0,1,.38,1.5.5,1.5A.6.6,0,0,1,6.79,10.92Z"/></g><g id="_Group_5" data-name="&lt;Group&gt;"><path id="_Path_2" data-name="&lt;Path&gt;" d="M17,9a.51.51,0,0,1-.46-.3A7.32,7.32,0,0,1,16,7a9.13,9.13,0,0,1-5.35-2.22,2,2,0,0,1-.33.43A3.82,3.82,0,0,1,7.63,6,7.59,7.59,0,0,0,7.5,8.46a.52.52,0,0,1-.16.41A.47.47,0,0,1,6.93,9a10.71,10.71,0,0,0-1.26-.1.5.5,0,0,1,0-1c.27,0,.56,0,.8,0a4.69,4.69,0,0,1,.46-2.68A.94.94,0,0,1,7.64,5a2.94,2.94,0,0,0,2-.52,1.28,1.28,0,0,0,.35-1,.5.5,0,0,1,1,0C11.06,4,13.57,6,16.5,6a.5.5,0,0,1,.5.5A4.67,4.67,0,0,0,17.33,8l1-.08a.51.51,0,0,1,.54.46.5.5,0,0,1-.46.54L17,9Z"/></g><g id="_Group_6" data-name="&lt;Group&gt;"><path id="_Path_3" data-name="&lt;Path&gt;" d="M10.5,10h-1a.5.5,0,0,1,0-1h1a.5.5,0,0,1,0,1Z"/></g><g id="_Group_7" data-name="&lt;Group&gt;"><path id="_Path_4" data-name="&lt;Path&gt;" d="M14.5,10h-1a.5.5,0,0,1,0-1h1a.5.5,0,0,1,0,1Z"/></g><g id="_Group_8" data-name="&lt;Group&gt;"><path id="_Compound_Path_2" data-name="&lt;Compound Path&gt;" d="M23.5,24H.5a.49.49,0,0,1-.39-.19.51.51,0,0,1-.1-.43l.78-3.11A2.53,2.53,0,0,1,2.1,18.64l5.18-2.59a.48.48,0,0,1,.39,0A.51.51,0,0,1,8,16.3l2.58,6,.37-.76A4.23,4.23,0,0,1,10,19.5c0-.93.77-1.5,2-1.5s2,.57,2,1.5a4.23,4.23,0,0,1-.91,2.05l.38.76,2.57-6a.51.51,0,0,1,.29-.27.48.48,0,0,1,.39,0l5.18,2.59a2.53,2.53,0,0,1,1.31,1.63L24,23.38a.51.51,0,0,1-.1.43A.49.49,0,0,1,23.5,24Zm-9.24-1h8.6l-.62-2.49a1.48,1.48,0,0,0-.79-1l-4.7-2.36Zm-2.95,0h1.38l-.64-1.28a.51.51,0,0,1,.06-.53A4.21,4.21,0,0,0,13,19.5c0-.45-.7-.5-1-.5s-1,.05-1,.5a4.21,4.21,0,0,0,.89,1.69.51.51,0,0,1,.06.53ZM1.14,23h8.6L7.25,17.18l-4.7,2.36a1.48,1.48,0,0,0-.79,1Z"/></g></g><g id="_Group_9" data-name="&lt;Group&gt;"><path id="_Path_5" data-name="&lt;Path&gt;" d="M13.5,14.5a.5.5,0,0,1,0-1c1.1,0,4-.61,4-2a.5.5,0,0,1,1,0C18.5,13.79,14.84,14.5,13.5,14.5Z"/></g></g></g></g></svg>